<?xml version="1.0" encoding="UTF-8"?>
<svg width="25px" height="25px" viewBox="0 0 25 25" version="1.1" xmlns="http://www.w3.org/2000/svg" xmlns:xlink="http://www.w3.org/1999/xlink">
    <title>apps/128/deepin-editor</title>
    <defs>
        <filter x="-10.7%" y="-4.8%" width="121.3%" height="119.4%" filterUnits="objectBoundingBox" id="filter-1">
            <feOffset dx="0" dy="1" in="SourceAlpha" result="shadowOffsetOuter1"></feOffset>
            <feGaussianBlur stdDeviation="0.5" in="shadowOffsetOuter1" result="shadowBlurOuter1"></feGaussianBlur>
            <feColorMatrix values="0 0 0 0 0   0 0 0 0 0   0 0 0 0 0  0 0 0 0.20036604 0" type="matrix" in="shadowBlurOuter1" result="shadowMatrixOuter1"></feColorMatrix>
            <feMerge>
                <feMergeNode in="shadowMatrixOuter1"></feMergeNode>
                <feMergeNode in="SourceGraphic"></feMergeNode>
            </feMerge>
        </filter>
        <linearGradient x1="50%" y1="2.37536127%" x2="50%" y2="94.5953062%" id="linearGradient-2">
            <stop stop-color="#E9E9E9" offset="0%"></stop>
            <stop stop-color="#CAD7E9" offset="100%"></stop>
        </linearGradient>
        <path d="M3.84702962,-1.33226763e-15 L14.9029704,1.13354267e-15 C16.2406664,-6.58620937e-16 16.7257473,0.139281929 17.214789,0.400824274 C17.7038306,0.66236662 18.0876334,1.04616938 18.3491757,1.53521105 C18.6107181,2.02425271 18.75,2.50933361 18.75,3.84702962 L18.75,16.7779704 C18.75,18.1156664 18.6107181,18.6007473 18.3491757,19.089789 C18.0876334,19.5788306 17.7038306,19.9626334 17.214789,20.2241757 C16.7257473,20.4857181 16.2406664,20.625 14.9029704,20.625 L3.84702962,20.625 C2.50933361,20.625 2.02425271,20.4857181 1.53521105,20.2241757 C1.04616938,19.9626334 0.66236662,19.5788306 0.400824274,19.089789 C0.139281929,18.6007473 5.75813397e-16,18.1156664 2.17380675e-16,16.7779704 L0,3.84702962 C0,2.50933361 0.139281929,2.02425271 0.400824274,1.53521105 C0.66236662,1.04616938 1.04616938,0.66236662 1.53521105,0.400824274 C2.02425271,0.139281929 2.50933361,-1.33226763e-15 3.84702962,-1.33226763e-15 Z" id="path-3"></path>
        <filter x="-8.0%" y="-7.3%" width="116.0%" height="114.5%" filterUnits="objectBoundingBox" id="filter-4">
            <feGaussianBlur stdDeviation="1" in="SourceAlpha" result="shadowBlurInner1"></feGaussianBlur>
            <feOffset dx="0" dy="-1" in="shadowBlurInner1" result="shadowOffsetInner1"></feOffset>
            <feComposite in="shadowOffsetInner1" in2="SourceAlpha" operator="arithmetic" k2="-1" k3="1" result="shadowInnerInner1"></feComposite>
            <feColorMatrix values="0 0 0 0 0   0 0 0 0 0.108032992   0 0 0 0 0.378311821  0 0 0 0.2 0" type="matrix" in="shadowInnerInner1"></feColorMatrix>
        </filter>
        <linearGradient x1="40.7675756%" y1="0%" x2="40.7675756%" y2="100%" id="linearGradient-5">
            <stop stop-color="#FFFFFF" stop-opacity="0.2" offset="0%"></stop>
            <stop stop-color="#000000" stop-opacity="0.2" offset="100%"></stop>
        </linearGradient>
        <linearGradient x1="50%" y1="2.37536127%" x2="50%" y2="98.4836363%" id="linearGradient-6">
            <stop stop-color="#1760F8" offset="0%"></stop>
            <stop stop-color="#0922E2" offset="100%"></stop>
        </linearGradient>
        <path d="M14.625,14.4537205 C14.625,15.0035038 14.4195122,15.4421111 14.1960332,15.7695556 C13.9725542,16.0970001 13.5876407,16.3092294 13.125,16.40625 L13.125,15.8120019 C13.3131928,15.7068963 13.437242,15.5624761 13.4660978,15.375 L13.125,15.375 L13.125,13.6875 L14.625,13.6875 L14.625,14.4537205 Z M12.75,14.4537205 C12.75,15.0035038 12.598479,15.4421111 12.375,15.7695556 C12.151521,16.0970001 11.7126407,16.3092294 11.25,16.40625 L11.25,15.8120019 C11.3676205,15.7473215 11.4499536,15.6826421 11.4970018,15.6179617 C11.5440501,15.5532813 11.5838836,15.4827792 11.5988214,15.375 L11.25,15.375 L11.25,13.6875 L12.75,13.6875 L12.75,14.4537205 Z M4.125,6.64550781 C4.125,7.75228418 4.44488299,8.63525061 4.89715576,9.29443359 C5.34942853,9.95361658 6.00121602,10.3808584 6.9375,10.5761719 L6.9375,9.37988281 C6.55663872,9.16829321 6.36901895,8.8606792 6.28967285,8.4375 L6.9375,8.4375 L6.9375,5.0625 L4.125,5.0625 L4.125,6.64550781 Z M7.6875,6.64550781 C7.6875,7.75228418 7.99822772,8.63525061 8.45050049,9.29443359 C8.90277326,9.95361658 9.56371602,10.3808584 10.5,10.5761719 L10.5,9.37988281 C10.2619617,9.24967383 10.1286626,9.1194668 10.0334473,8.98925781 C9.93823195,8.85904883 9.85269712,8.68164185 9.82095868,8.4375 L10.5,8.4375 L10.5,5.0625 L7.6875,5.0625 L7.6875,6.64550781 Z" id="path-7"></path>
        <filter x="-14.3%" y="-13.2%" width="128.6%" height="126.4%" filterUnits="objectBoundingBox" id="filter-8">
            <feGaussianBlur stdDeviation="1" in="SourceAlpha" result="shadowBlurInner1"></feGaussianBlur>
            <feOffset dx="0" dy="-1" in="shadowBlurInner1" result="shadowOffsetInner1"></feOffset>
            <feComposite in="shadowOffsetInner1" in2="SourceAlpha" operator="arithmetic" k2="-1" k3="1" result="shadowInnerInner1"></feComposite>
            <feColorMatrix values="0 0 0 0 0   0 0 0 0 0.108032992   0 0 0 0 0.378311821  0 0 0 0.2 0" type="matrix" in="shadowInnerInner1"></feColorMatrix>
        </filter>
        <linearGradient x1="40.7675756%" y1="0%" x2="40.7675756%" y2="100%" id="linearGradient-9">
            <stop stop-color="#FFFFFF" stop-opacity="0.2" offset="0%"></stop>
            <stop stop-color="#000000" stop-opacity="0.2" offset="100%"></stop>
        </linearGradient>
    </defs>
    <g id="apps/128/deepin-editor" stroke="none" fill="none" transform="translate(0.25, 0)">
        <g id="Guide/128"></g>
        <g id="Group" filter="url(#filter-1)" stroke-width="1" fill-rule="evenodd" transform="translate(2.625, 1.6875)">
            <g id="Rectangle-3">
                <use fill="url(#linearGradient-2)" fill-rule="evenodd" xlink:href="#path-3"></use>
                <use fill="black" fill-opacity="1" filter="url(#filter-4)" xlink:href="#path-3"></use>
            </g>
            <path d="M14.9029704,-1.33226763e-15 C16.2406664,-1.33226763e-15 16.7257473,0.139281929 17.214789,0.400824274 C17.7038306,0.66236662 18.0876334,1.04616938 18.3491757,1.53521105 C18.6107181,2.02425271 18.75,2.50933361 18.75,3.84702962 L18.75,16.7779704 C18.75,18.1156664 18.6107181,18.6007473 18.3491757,19.089789 C18.0876334,19.5788306 17.7038306,19.9626334 17.214789,20.2241757 C16.7257473,20.4857181 16.2406664,20.625 14.9029704,20.625 L3.84702962,20.625 C2.50933361,20.625 2.02425271,20.4857181 1.53521105,20.2241757 C1.04616938,19.9626334 0.66236662,19.5788306 0.400824274,19.089789 C0.139281929,18.6007473 0,18.1156664 0,16.7779704 L0,3.84702962 C0,2.50933361 0.139281929,2.02425271 0.400824274,1.53521105 C0.66236662,1.04616938 1.04616938,0.66236662 1.53521105,0.400824274 C2.02425271,0.139281929 2.50933361,-1.33226763e-15 3.84702962,-1.33226763e-15 L14.9029704,-1.33226763e-15 Z M14.9029704,0.1875 L3.84702962,0.1875 C2.65572956,0.1875 2.14853885,0.285443044 1.62363583,0.566164249 C1.16726951,0.810231632 0.810231632,1.16726951 0.566164249,1.62363583 C0.292289902,2.13573634 0.192386441,2.63097801 0.187676025,3.76107204 L0.187676025,16.863928 C0.192386441,17.994022 0.292289902,18.4892637 0.566164249,19.0013642 C0.810231632,19.4577305 1.16726951,19.8147684 1.62363583,20.0588358 C2.14853885,20.339557 2.65572956,20.4375 3.84702962,20.4375 L14.9029704,20.4375 C16.0942704,20.4375 16.6014611,20.339557 17.1263642,20.0588358 C17.5827305,19.8147684 17.9397684,19.4577305 18.1838358,19.0013642 C18.464557,18.4764611 18.5625,17.9692704 18.5625,16.7779704 L18.5625,3.84702962 C18.5625,2.65572956 18.464557,2.14853885 18.1838358,1.62363583 C17.9397684,1.16726951 17.5827305,0.810231632 17.1263642,0.566164249 C16.6014611,0.285443044 16.0942704,0.1875 14.9029704,0.1875 Z" id="Rectangle-3" fill="url(#linearGradient-5)" fill-rule="nonzero"></path>
            <path d="M16.875,17.8125 L16.875,18.1875 L1.875,18.1875 L1.875,17.8125 L16.875,17.8125 Z M10.874,16.312 L10.874,16.687 L1.875,16.6875 L1.875,16.3125 L10.874,16.312 Z M12.75,16.312 L12.75,16.687 L11.666,16.687 L11.7356398,16.6620941 C11.9260523,16.5839401 12.1644645,16.4849745 12.3890022,16.3130043 L12.75,16.312 Z M16.875,16.3125 L16.875,16.6875 L13.5508316,16.6887219 C13.7882234,16.6039441 14.0233519,16.4761905 14.2256021,16.3125057 L16.875,16.3125 Z M10.874,15 L10.874,15.375 L1.875,15.375 L1.875,15 L10.874,15 Z M16.875,15 L16.875,15.375 L14.8536604,15.3765419 C14.8927305,15.2575647 14.9238466,15.132333 14.9471651,15.0009772 L16.875,15 Z M10.874,13.687 L10.874,14.062 L1.875,14.0625 L1.875,13.6875 L10.874,13.687 Z M16.875,13.6875 L16.875,14.0625 L15,14.062 L15,13.687 L16.875,13.6875 Z M16.875,12.1875 L16.875,12.5625 L1.875,12.5625 L1.875,12.1875 L16.875,12.1875 Z M16.875,10.875 L16.875,11.25 L1.875,11.25 L1.875,10.875 L6.428,10.875 L6.60741574,10.9274042 C6.66806075,10.9434534 6.74137877,10.9604779 6.8145841,10.9758235 L6.92270937,10.997251 C6.99260559,11.0102542 7.1225358,11.0320039 7.3125,11.0625 L7.312,10.875 L9.989,10.875 L10.1685965,10.9274042 C10.2275918,10.9429146 10.3061834,10.9603156 10.3793915,10.9758408 L10.4820435,10.997251 C10.5066754,11.0023342 10.5424121,11.008864 10.5892539,11.0168405 L10.7630939,11.0451101 L10.875,11.0625 L10.874,10.875 L16.875,10.875 Z M4.413,9.375 L4.513809,9.53056415 C4.56681719,9.60699345 4.62261917,9.6806926 4.68118836,9.751656 L1.875,9.75 L1.875,9.375 L4.413,9.375 Z M7.967,9.375 L8.06715373,9.53056415 C8.12011406,9.60692445 8.17586395,9.68053433 8.2343767,9.75139378 L7.312,9.75 L7.312,9.375 L7.967,9.375 Z M16.875,9.375 L16.875,9.75 L10.874,9.75 L10.874,9.375 L16.875,9.375 Z M3.89412837,8.0636141 C3.92273119,8.1922698 3.95562023,8.31719819 3.99282133,8.43837722 L1.875,8.4375 L1.875,8.0625 Z M16.875,8.0625 L16.875,8.4375 L10.874,8.437 L10.874,8.062 L16.875,8.0625 Z M3.749,6.562 L3.75,6.63637334 C3.75,6.73836286 3.75185297,6.83874044 3.75556648,6.93749962 L1.875,6.9375 L1.875,6.5625 L3.749,6.562 Z M16.875,6.5625 L16.875,6.9375 L10.874,6.937 L10.874,6.562 L16.875,6.5625 Z M3.749,5.062 L3.749,5.437 L1.875,5.4375 L1.875,5.0625 L3.749,5.062 Z M16.875,5.0625 L16.875,5.4375 L10.874,5.437 L10.874,5.062 L16.875,5.0625 Z M16.875,3.75 L16.875,4.125 L1.875,4.125 L1.875,3.75 L16.875,3.75 Z M16.875,2.25 L16.875,2.625 L1.875,2.625 L1.875,2.25 L16.875,2.25 Z" id="形状结合" fill-opacity="0.2" fill="#5A75E1"></path>
            <g id="Combined-Shape">
                <use fill="url(#linearGradient-6)" fill-rule="evenodd" xlink:href="#path-7"></use>
                <use fill="black" fill-opacity="1" filter="url(#filter-8)" xlink:href="#path-7"></use>
            </g>
            <path d="M14.625,13.6875 L14.625,14.4537205 C14.625,15.0035038 14.4195122,15.4421111 14.1960332,15.7695556 C13.9725542,16.0970001 13.5876407,16.3092294 13.125,16.40625 L13.125,15.8120019 C13.3131928,15.7068963 13.437242,15.5624761 13.4660978,15.375 L13.125,15.375 L13.125,13.6875 L14.625,13.6875 Z M12.75,13.6875 L12.75,14.4537205 C12.75,15.0035038 12.598479,15.4421111 12.375,15.7695556 C12.151521,16.0970001 11.7126407,16.3092294 11.25,16.40625 L11.25,15.8120019 C11.3676205,15.7473215 11.4499536,15.6826421 11.4970018,15.6179617 C11.5440501,15.5532813 11.5838836,15.4827792 11.5988214,15.375 L11.25,15.375 L11.25,13.6875 L12.75,13.6875 Z M12.5625,13.875 L11.4375,13.875 L11.4375,15.1875 L11.8141005,15.1875 L11.7845461,15.4007408 C11.7667213,15.5293505 11.7231017,15.6258761 11.648631,15.7282561 C11.6047533,15.7885778 11.5444408,15.8445756 11.4677236,15.8979625 L11.4375,15.918 L11.4375,16.1645625 L11.4524166,16.1600761 C11.7797139,16.0572326 12.043705,15.8963084 12.1946731,15.6990429 L12.2201311,15.6638585 C12.439805,15.3419893 12.5625,14.9331523 12.5625,14.4537205 L12.5625,13.875 Z M14.4375,13.875 L13.3125,13.875 L13.3125,15.1875 L13.6846652,15.1875 L13.6514155,15.4035235 C13.6205869,15.6038173 13.5102695,15.7702569 13.3366218,15.8985357 L13.3125,15.915375 L13.3125,16.162875 L13.3348887,16.1558465 C13.6291905,16.0572499 13.8612033,15.9033807 14.012077,15.704279 L14.0411643,15.6638585 C14.2946702,15.2924181 14.4375,14.8974544 14.4375,14.4537205 L14.4375,13.875 Z M6.9375,5.0625 L6.9375,8.4375 L6.28967285,8.4375 C6.36901895,8.8606792 6.55663872,9.16829321 6.9375,9.37988281 L6.9375,10.5761719 C6.00121602,10.3808584 5.34942853,9.95361658 4.89715576,9.29443359 C4.44488299,8.63525061 4.125,7.75228418 4.125,6.64550781 L4.125,5.0625 L6.9375,5.0625 Z M10.5,5.0625 L10.5,8.4375 L9.82095868,8.4375 C9.85269712,8.68164185 9.93823195,8.85904883 10.0334473,8.98925781 C10.1286626,9.1194668 10.2619617,9.24967383 10.5,9.37988281 L10.5,10.5761719 C9.56371602,10.3808584 8.90277326,9.95361658 8.45050049,9.29443359 C7.99822772,8.63525061 7.6875,7.75228418 7.6875,6.64550781 L7.6875,5.0625 L10.5,5.0625 Z M6.75,5.25 L4.3125,5.25 L4.3125,6.64550781 C4.3125,7.60441742 4.56026774,8.43881834 5.00352616,9.11636293 L5.0517638,9.1883553 C5.44218312,9.75738751 5.98353569,10.1321242 6.72905962,10.3337503 L6.75,10.339125 L6.75,9.486 C6.40831689,9.26560515 6.20855629,8.95539877 6.11717654,8.5306821 L6.10538432,8.4720541 L6.06374917,8.25 L6.75,8.25 L6.75,5.25 Z M10.3123125,5.25 L7.8748125,5.25 L7.875,6.64550781 C7.875,7.61073138 8.11877061,8.44586734 8.5573722,9.11706961 L8.60510853,9.1883553 C8.99374698,9.75479191 9.54111412,10.1310188 10.2904297,10.3335023 L10.3123125,10.339125 L10.3123125,9.4875 L10.2965453,9.47796705 C10.1353996,9.37679591 10.013765,9.26797367 9.91441212,9.14241761 L9.8820961,9.09993335 C9.75377608,8.92445298 9.66785671,8.71423668 9.63502325,8.46167161 L9.60750594,8.25 L10.3123125,8.25 L10.3123125,5.25 Z" id="Combined-Shape" fill="url(#linearGradient-9)" fill-rule="nonzero"></path>
        </g>
    </g>
</svg>