<svg xmlns="http://www.w3.org/2000/svg" width="24" height="24" viewBox="0 0 24 24">
  <defs>
    <filter id="deepin-editor-a" width="125%" height="122.7%" x="-12.5%" y="-11.4%" filterUnits="objectBoundingBox">
      <feOffset in="SourceAlpha" result="shadowOffsetOuter1"/>
      <feGaussianBlur in="shadowOffsetOuter1" result="shadowBlurOuter1" stdDeviation=".5"/>
      <feComposite in="shadowBlurOuter1" in2="SourceAlpha" operator="out" result="shadowBlurOuter1"/>
      <feColorMatrix in="shadowBlurOuter1" result="shadowMatrixOuter1" values="0 0 0 0 0   0 0 0 0 0   0 0 0 0 0  0 0 0 0.15 0"/>
      <feMerge>
        <feMergeNode in="shadowMatrixOuter1"/>
        <feMergeNode in="SourceGraphic"/>
      </feMerge>
    </filter>
    <radialGradient id="deepin-editor-b" cx="60.953%" cy="7.944%" r="113.072%" fx="60.953%" fy="7.944%" gradientTransform="scale(1 .9091) rotate(73.101 .604 .083)">
      <stop offset="0%" stop-color="#00C2FB"/>
      <stop offset="100%" stop-color="#003AE3"/>
    </radialGradient>
  </defs>
  <g fill="none" fill-rule="evenodd" filter="url(#deepin-editor-a)" transform="translate(2 1)">
    <rect width="20" height="22" fill="url(#deepin-editor-b)" rx="3"/>
    <path fill="#FFF" fill-opacity=".1" d="M6,1 L6,4 L17,4 L17,5 L6,5 L6,8 L17,8 L17,9 L6,9 L6,12 L17,12 L17,13 L6,13 L6,16 L17,16 L17,17 L6,17 L6,21 L5,21 L5,17 L3,17 L3,16 L5,16 L5,13 L3,13 L3,12 L5,12 L5,9 L3,9 L3,8 L5,8 L5,5 L3,5 L3,4 L5,4 L5,1 L6,1 Z"/>
    <path fill="#FFF" d="M19,16.7023947 C19,17.6309176 18.8049667,18.3716766 18.4148943,18.9246939 C18.0248219,19.4777112 17.4260356,19.836143 16.6185173,20 L16.6185173,18.996381 C16.9469993,18.8188693 17.1454542,18.5526057 17.213888,18.1975822 L16.6185173,18.1975822 L16.6185173,15.4529915 L19,15.4529915 L19,16.7023947 Z M15.8178464,15.4529915 L15.8178464,16.7023947 C15.8178464,17.6309176 15.6228131,18.3716766 15.2327407,18.9246939 C14.8426683,19.4777112 14.2438819,19.836143 13.4363636,20 L13.4363636,18.996381 C13.6416649,18.887143 13.7853736,18.7779067 13.8674941,18.6686687 C13.9496146,18.5594307 14.0043608,18.4024034 14.0317343,18.1975822 L13.4363636,18.1975822 L13.4363636,15.4529915 L15.8178464,15.4529915 Z M6.81960227,2 L6.81960227,7.52517361 L5.6147017,7.52517361 C5.74060626,8.17490329 6.08397734,8.67696049 6.644824,9.03135729 L6.81960227,9.13324653 L6.81960227,11.1536458 C5.18536115,10.8237831 3.97354798,10.1022191 3.18412642,8.98893229 C2.44733296,7.9498646 2.05438161,6.58156448 2.00526273,4.88399558 L2,4.51519097 L2,2 L6.81960227,2 Z M13.2595881,2 L13.2595881,7.52517361 L12.0546875,7.52517361 C12.1100855,7.93750206 12.2208799,8.2536158 12.3870739,8.47352431 C12.5532679,8.69343281 12.844103,8.91333802 13.2595881,9.13324653 L13.2595881,9.13324653 L13.2595881,11.1536458 C11.6253469,10.8237831 10.4135338,10.1022191 9.62411222,8.98893229 C8.83469066,7.87564548 8.4399858,6.38441328 8.4399858,4.51519097 L8.4399858,4.51519097 L8.4399858,2 L13.2595881,2 Z"/>
  </g>
</svg>
