<svg xmlns="http://www.w3.org/2000/svg" width="96" height="96" viewBox="0 0 96 96">
  <defs>
    <filter id="deepin-editor-a" width="131.6%" height="128.6%" x="-15.8%" y="-14.3%" filterUnits="objectBoundingBox">
      <feOffset dy="2" in="SourceAlpha" result="shadowOffsetOuter1"/>
      <feGaussianBlur in="shadowOffsetOuter1" result="shadowBlurOuter1" stdDeviation="2"/>
      <feComposite in="shadowBlurOuter1" in2="SourceAlpha" operator="out" result="shadowBlurOuter1"/>
      <feColorMatrix in="shadowBlurOuter1" result="shadowMatrixOuter1" values="0 0 0 0 0   0 0 0 0 0   0 0 0 0 0  0 0 0 0.2 0"/>
      <feMerge>
        <feMergeNode in="shadowMatrixOuter1"/>
        <feMergeNode in="SourceGraphic"/>
      </feMerge>
    </filter>
    <radialGradient id="deepin-editor-b" cx="60.953%" cy="7.944%" r="113.567%" fx="60.953%" fy="7.944%" gradientTransform="scale(1 .90476) rotate(73.177 .604 .084)">
      <stop offset="0%" stop-color="#00C2FB"/>
      <stop offset="100%" stop-color="#003AE3"/>
    </radialGradient>
  </defs>
  <g fill="none" fill-rule="evenodd" filter="url(#deepin-editor-a)" transform="translate(10 6)">
    <rect width="76" height="84" fill="url(#deepin-editor-b)" rx="10"/>
    <path fill="#FFF" fill-opacity=".3" d="M13,0 L13,5 L68,5 L68,6 L13,6 L13,11 L68,11 L68,12 L13,12 L13,17 L13,18 L13,23 L13,24 L13,29 L13.1145897,29.0012739 C13.1434811,29.3391331 13.1778585,29.6725178 13.2177474,30.0014066 L13,30 L13,35 L14.3748279,35.0012893 C14.4980591,35.3413606 14.6296903,35.674578 14.769768,36.0009033 L13,36 L13,41 L18.1097675,41.001656 C18.4616447,41.3527604 18.8311607,41.6859074 19.2180194,42.0010938 L13,42 L13,47 L68,47 L68,48 L13,48 L13,53 L43.4,53 L43.4,54 L13,54 L13,59 L43.4,59 L43.4,60 L13,60 L13,65 L43.4,65 L43.4,66 L13,66 L13,71 L68,71 L68,72 L13,72 L13,77 L68,77 L68,78 L13,78 L13,84 L12,84 L12,78 L6,78 L6,77 L12,77 L12,72 L6,72 L6,71 L12,71 L12,66 L6,66 L6,65 L12,65 L12,60 L6,60 L6,59 L12,59 L12,54 L6,54 L6,53 L12,53 L12,48 L6,48 L6,47 L12,47 L12,42 L6,42 L6,41 L12,41 L12,36 L6,36 L6,35 L12,35 L12,30 L6,30 L6,29 L12,29 L12,24 L6,24 L6,23 L12,23 L12,18 L6,18 L6,17 L12,17 L12,12 L6,12 L6,11 L12,11 L12,6 L6,6 L6,5 L12,5 L12,0 L13,0 Z M61.6688841,65.0014527 L68,65 L68,66 L61.0685054,66.001106 C61.2878908,65.6816193 61.4879012,65.3483083 61.6688841,65.0014527 Z M62.998,59 L68,59 L68,60 L62.9639875,60.0010076 C62.9880622,59.6234208 63,59.2372868 63,58.8427658 L62.998,59 Z M63,53 L68,53 L68,54 L63,54 L63,53 Z M30.78,41 L33.8514646,41.0011667 C34.2035673,41.3525291 34.5733331,41.6859094 34.9604653,42.0013044 L30.781,42 L30.78,41 Z M46.523,41 L68,41 L68,42 L46.523,42 L46.523,41 Z M46.523,35 L68,35 L68,36 L46.523,36 L46.523,35 Z M46.523,29 L68,29 L68,30 L46.523,30 L46.523,29 Z M46.523,23 L68,23 L68,24 L46.523,24 L46.523,23 Z M46.5234375,17 L68,17 L68,18 L46.523,18 L46.5234375,17 Z"/>
    <path fill="#FFF" d="M60,58.8427658 C60,61.1396383 59.523252,62.9720421 58.5697417,64.3400323 C57.6162314,65.7080225 56.1525314,66.5946696 54.1785978,67 L54.1785978,64.5173635 C54.9815538,64.0782555 55.4666658,63.4196035 55.6339483,62.5413875 L54.1785978,62.5413875 L54.1785978,55.7521368 L60,55.7521368 L60,58.8427658 Z M52.2214022,55.7521368 L52.2214022,58.8427658 C52.2214022,61.1396383 51.7446542,62.9720421 50.7911439,64.3400323 C49.8376336,65.7080225 48.3739336,66.5946696 46.4,67 L46.4,64.5173635 C46.9018475,64.2471432 47.2531355,63.976927 47.4538745,63.7067067 C47.6546135,63.4364864 47.7884375,63.0480506 47.8553506,62.5413875 L46.4,62.5413875 L46.4,55.7521368 L52.2214022,55.7521368 Z M27.78125,20 L27.78125,33.6675347 L24.8359375,33.6675347 C25.1566628,35.3424334 26.0546804,36.6206278 27.5300153,37.5021515 L27.78125,37.6453993 L27.78125,42.6432292 C23.7864384,41.8272529 20.8242284,40.0423315 18.8945312,37.2884115 C17.0337519,34.6328457 16.0701474,31.1079498 16.003692,26.7136245 L16,26.2217882 L16,20 L27.78125,20 Z M43.5234375,20 L43.5234375,33.6675347 L40.578125,33.6675347 C40.7135423,34.6875051 40.984373,35.4694707 41.390625,36.0134549 C41.796877,36.5574391 42.5078074,37.1014151 43.5234375,37.6453993 L43.5234375,37.6453993 L43.5234375,42.6432292 C39.5286259,41.8272529 36.5664159,40.0423315 34.6367188,37.2884115 C32.7070216,34.5344914 31.7421875,30.8456539 31.7421875,26.2217882 L31.7421875,26.2217882 L31.7421875,20 L43.5234375,20 Z"/>
  </g>
</svg>
