<?xml version="1.0" encoding="UTF-8"?>
<svg width="20px" height="20px" viewBox="0 0 20 20" version="1.1" xmlns="http://www.w3.org/2000/svg" xmlns:xlink="http://www.w3.org/1999/xlink">
    <!-- Generator: Sketch 64 (93537) - https://sketch.com -->
    <title>S</title>
    <desc>Created with Sketch.</desc>
    <g id="页面-1" stroke="none" stroke-width="1" fill="none" fill-rule="evenodd">
        <g id="S">
            <path d="M15.7,19.5 L4.3,19.5 C2.21,19.5 0.5,17.79 0.5,15.7 L0.5,4.3 C0.5,2.21 2.21,0.5 4.3,0.5 L15.7,0.5 C17.79,0.5 19.5,2.21 19.5,4.3 L19.5,15.7 C19.5,17.79 17.79,19.5 15.7,19.5 Z" id="路径" fill="#FFFFFF" fill-rule="nonzero"></path>
            <path d="M15.5,19.5 L4.5,19.5 C2.291,19.5 0.5,17.709 0.5,15.5 L0.5,4.5 C0.5,2.291 2.291,0.5 4.5,0.5 L15.5,0.5 C17.709,0.5 19.5,2.291 19.5,4.5 L19.5,15.5 C19.5,17.709 17.709,19.5 15.5,19.5 Z" id="路径" stroke="#CBCBCB"></path>
            <path d="M9.451,13.992 C9.068,13.992 8.614,13.943 8.102,13.847 C7.597,13.752 7.225,13.634 6.998,13.495 L7.033,12.218 C7.323,12.412 7.687,12.577 8.12,12.708 C8.631,12.864 9.126,12.943 9.589,12.943 C10.975,12.943 11.776,12.748 11.776,11.754 C11.776,11.483 11.694,11.236 11.533,11.019 C11.378,10.811 11.162,10.624 10.892,10.463 C10.628,10.307 10.147,10.074 9.422,9.751 C8.451,9.315 7.805,8.907 7.502,8.54 C7.203,8.181 7.052,7.763 7.052,7.299 C7.052,6.59 7.361,6.042 7.995,5.625 C8.633,5.205 9.678,4.992 10.657,4.992 C11.367,4.992 11.989,5.151 13,5.477 L13,6.486 C11.989,6.203 11.533,5.906 10.587,5.906 C9.968,5.906 9.342,6.026 8.947,6.263 C8.548,6.502 8.246,6.743 8.246,7.202 C8.246,7.592 8.362,7.915 8.648,8.16 C8.92,8.394 9.476,8.702 10.374,9.102 C11.327,9.513 11.992,9.927 12.367,10.332 C12.734,10.728 12.917,11.179 12.917,11.671 C12.917,12.423 12.621,12.983 12.017,13.385 C11.409,13.787 10.544,13.992 9.451,13.992 Z" id="路径" fill="#000000" fill-rule="nonzero"></path>
        </g>
    </g>
</svg>