<?xml version="1.0" encoding="UTF-8"?>
<svg width="32px" height="32px" viewBox="0 0 32 32" version="1.1" xmlns="http://www.w3.org/2000/svg" xmlns:xlink="http://www.w3.org/1999/xlink">
    <!-- Generator: Sketch 56.2 (81672) - https://sketch.com -->
    <title>deepin-terminal-32px 2</title>
    <desc>Created with Sketch.</desc>
    <defs>
        <filter x="-15.4%" y="-14.3%" width="130.8%" height="128.6%" filterUnits="objectBoundingBox" id="filter-1">
            <feOffset dx="0" dy="1" in="SourceAlpha" result="shadowOffsetOuter1"></feOffset>
            <feGaussianBlur stdDeviation="0.5" in="shadowOffsetOuter1" result="shadowBlurOuter1"></feGaussianBlur>
            <feComposite in="shadowBlurOuter1" in2="SourceAlpha" operator="out" result="shadowBlurOuter1"></feComposite>
            <feColorMatrix values="0 0 0 0 0   0 0 0 0 0   0 0 0 0 0  0 0 0 0.15 0" type="matrix" in="shadowBlurOuter1" result="shadowMatrixOuter1"></feColorMatrix>
            <feMerge>
                <feMergeNode in="shadowMatrixOuter1"></feMergeNode>
                <feMergeNode in="SourceGraphic"></feMergeNode>
            </feMerge>
        </filter>
        <radialGradient cx="60.9534863%" cy="7.94420924%" fx="60.9534863%" fy="7.94420924%" r="110.902201%" gradientTransform="translate(0.609535,0.079442),scale(1.000000,0.928571),rotate(72.759858),translate(-0.609535,-0.079442)" id="radialGradient-2">
            <stop stop-color="#00C2FB" offset="0%"></stop>
            <stop stop-color="#003AE3" offset="100%"></stop>
        </radialGradient>
    </defs>
    <g id="flinto" stroke="none" stroke-width="1" fill="none" fill-rule="evenodd">
        <g id="文本编辑器" transform="translate(-88.000000, -64.000000)">
            <g id="toolbar" transform="translate(78.000000, 54.000000)">
                <g id="deepin-terminal-32px-2">
                    <g transform="translate(10.000000, 10.000000)">
                        <g id="deepin-editor-32px">
                            <g id="编组" filter="url(#filter-1)" transform="translate(3.000000, 2.000000)">
                                <path d="M5.1277704,-2.07168062e-16 L20.8722296,2.07168062e-16 C22.6552671,-1.2037061e-16 23.3018396,0.185651222 23.9536914,0.534265408 C24.6055433,0.882879593 25.1171204,1.39445674 25.4657346,2.04630859 C25.8143488,2.69816044 26,3.34473292 26,5.1277704 L26,22.8722296 C26,24.6552671 25.8143488,25.3018396 25.4657346,25.9536914 C25.1171204,26.6055433 24.6055433,27.1171204 23.9536914,27.4657346 C23.3018396,27.8143488 22.6552671,28 20.8722296,28 L5.1277704,28 C3.34473292,28 2.69816044,27.8143488 2.04630859,27.4657346 C1.39445674,27.1171204 0.882879593,26.6055433 0.534265408,25.9536914 C0.185651222,25.3018396 8.02470732e-17,24.6552671 -1.38112041e-16,22.8722296 L1.38112041e-16,5.1277704 C-8.02470732e-17,3.34473292 0.185651222,2.69816044 0.534265408,2.04630859 C0.882879593,1.39445674 1.39445674,0.882879593 2.04630859,0.534265408 C2.69816044,0.185651222 3.34473292,1.2037061e-16 5.1277704,-2.07168062e-16 Z" id="Rectangle" fill="url(#radialGradient-2)"></path>
                                <path d="M5,6.5 L5,8.51519097 C5,8.67914167 5.00282942,8.84074838 5.00850098,9 L5,9 L5,13 L6.01001709,13 C6.12028317,13.1967564 6.23971895,13.3858969 6.36839353,13.5673611 C6.47496174,13.7176496 6.58776002,13.8618621 6.70670934,14 L5,14 L5,18 L23,18 L23,18.4529915 L19.6185173,18.4529915 L16.4363636,18.4529915 L16.4363636,19 L5,19 L5,23 L16.4363636,23 L16.4363636,24 L5,24 L5,27.5 L4,27.5 L4,24 L2.5,24 L2.5,23 L4,23 L4,19 L2.5,19 L2.5,18 L4,18 L4,14 L2.5,14 L2.5,13 L4,13 L4,9 L2.5,9 L2.5,8 L4,8 L4,4 L2.5,4 L2.5,3 L4,3 L4,0 L5,0 L5,3 L23,3 L23,4 L5,4 L5,6.5 Z M18.2595881,8 L23,8 L23,9 L18.2595881,9 L18.2595881,8 Z M11.8196023,13 L12.4500029,13 C12.560269,13.1967564 12.6797047,13.3858969 12.8083793,13.5673611 C12.9149475,13.7176496 13.0277458,13.8618621 13.1466951,14 L11.8196023,14 L11.8196023,13 Z M18.2595881,13 L23,13 L23,14 L18.2595881,14 L18.2595881,13 Z M23,23.794587 L23,24 L22.8021135,24 C22.8708525,23.9344585 22.9368344,23.8659876 23,23.794587 Z" id="Combined-Shape" fill-opacity="0.2" fill="#FFFFFF"></path>
                                <path d="M23,20.7023947 C23,21.6309176 22.8049667,22.3716766 22.4148943,22.9246939 C22.0248219,23.4777112 21.4260356,23.836143 20.6185173,24 L20.6185173,22.996381 C20.9469993,22.8188693 21.1454542,22.5526057 21.213888,22.1975822 L20.6185173,22.1975822 L20.6185173,19.4529915 L23,19.4529915 L23,20.7023947 Z M19.8178464,20.7023947 C19.8178464,21.6309176 19.6228131,22.3716766 19.2327407,22.9246939 C18.8426683,23.4777112 18.2438819,23.836143 17.4363636,24 L17.4363636,22.996381 C17.6416649,22.887143 17.7853736,22.7779067 17.8674941,22.6686687 C17.9496146,22.5594307 18.0043608,22.4024034 18.0317343,22.1975822 L17.4363636,22.1975822 L17.4363636,19.4529915 L19.8178464,19.4529915 L19.8178464,20.7023947 Z M6,8.51519097 L6,6 L10.8196023,6 L10.8196023,11.5251736 L9.6147017,11.5251736 C9.75319672,12.2398763 10.1548262,12.7758952 10.8196023,13.1332465 L10.8196023,15.1536458 C9.18536115,14.8237831 7.97354798,14.1022191 7.18412642,12.9889323 C6.39470486,11.8756455 6,10.3844133 6,8.51519097 Z M12.4399858,8.51519097 L12.4399858,6 L17.2595881,6 L17.2595881,11.5251736 L16.0546875,11.5251736 C16.1100855,11.9375021 16.2208799,12.2536158 16.3870739,12.4735243 C16.5532679,12.6934328 16.844103,12.913338 17.2595881,13.1332465 L17.2595881,15.1536458 C15.6253469,14.8237831 14.4135338,14.1022191 13.6241122,12.9889323 C12.8346907,11.8756455 12.4399858,10.3844133 12.4399858,8.51519097 Z" id="Combined-Shape" fill="#FFFFFF"></path>
                            </g>
                        </g>
                    </g>
                </g>
            </g>
        </g>
    </g>
</svg>